<svg width="76" height="42" viewBox="0 0 76 42" fill="none" xmlns="http://www.w3.org/2000/svg">
<path d="M42.0073 26.1163L36.2365 25.011C35.982 24.9901 35.8879 25.0947 35.8181 25.2376C35.724 25.4364 35.6263 25.6317 35.5252 25.8269C35.4485 25.9664 35.3718 26.1094 35.2951 26.2453C35.2951 26.2488 35.2916 26.2488 35.2916 26.2488C35.2114 26.3883 35.1312 26.5278 35.0475 26.6603C34.9638 26.7963 34.8767 26.9322 34.7895 27.0647C34.7232 27.1659 34.6535 27.2635 34.5873 27.3611C34.5663 27.396 34.5419 27.4274 34.5175 27.4588C34.4269 27.5878 34.3292 27.7133 34.2351 27.8388C34.2246 27.8563 34.2107 27.8737 34.1967 27.8911C34.113 27.9992 34.0224 28.1003 33.9352 28.2015H22.1741C21.9928 28.2015 21.8463 28.3584 21.8463 28.5501C21.8463 28.7419 21.9928 28.8988 22.1741 28.8988H33.4087C33.4017 28.9058 33.3982 28.9093 33.3913 28.9163C33.1716 29.1324 32.945 29.3451 32.7113 29.5509C32.7079 29.5543 32.7044 29.5578 32.7009 29.5578C32.5823 29.659 32.4603 29.7601 32.3382 29.8612C32.15 30.0111 31.9547 30.1541 31.7594 30.297H28.6352C28.4434 30.297 28.2865 30.454 28.2865 30.6457C28.2865 30.8375 28.4434 30.9944 28.6352 30.9944H30.7692C30.6541 31.0642 30.539 31.1269 30.424 31.1932C30.288 31.2699 30.152 31.3396 30.016 31.4094C29.744 31.5488 29.4651 31.6778 29.1827 31.7964C29.0467 31.8557 28.9142 31.908 28.7782 31.9603C28.6213 32.0195 28.4609 32.0753 28.304 32.1311C28.161 32.1799 28.0146 32.2253 27.8646 32.2706C27.7356 32.309 27.6031 32.3473 27.4706 32.3822C27.3311 32.4205 27.1917 32.4519 27.0522 32.4833C26.965 32.5042 26.8778 32.5251 26.7872 32.5426C26.5152 32.6019 26.2398 32.6472 25.9678 32.689C25.8283 32.7099 25.6888 32.7274 25.5459 32.7413C25.4029 32.7588 25.26 32.7692 25.117 32.7832C25.0647 32.7867 25.0124 32.7901 24.9566 32.7936C24.8311 32.8006 24.7055 32.8076 24.58 32.8111C24.4161 32.818 24.2523 32.8215 24.0884 32.8215C23.928 32.8215 23.7676 32.818 23.6107 32.8111C23.4328 32.8076 23.255 32.7971 23.0772 32.7832C23.0214 32.7797 22.9691 32.7762 22.9133 32.7692C22.7703 32.7553 22.6239 32.7413 22.4809 32.7239C22.3206 32.703 22.1567 32.682 21.9963 32.6576C21.8952 32.6402 21.794 32.6228 21.6964 32.6018C21.5011 32.5705 21.3094 32.5286 21.1211 32.4833C21.0165 32.4624 20.9119 32.4345 20.8073 32.4066C20.6817 32.3752 20.5562 32.3403 20.4307 32.3055C20.2668 32.2601 20.0994 32.2078 19.939 32.152C19.8135 32.1137 19.6915 32.0684 19.5694 32.023C19.5241 32.0091 19.4788 31.9917 19.4369 31.9742C19.294 31.9219 19.151 31.8661 19.0115 31.8068C18.8023 31.7162 18.5931 31.6255 18.3874 31.5244C18.2758 31.4721 18.1642 31.4163 18.0527 31.357C17.7493 31.2001 17.4494 31.0293 17.1635 30.848C16.8811 30.6736 16.6056 30.4853 16.3406 30.2901C16.0686 30.0913 15.8036 29.8821 15.5526 29.6624C15.4236 29.5543 15.298 29.4428 15.176 29.3277C15.054 29.2161 14.9319 29.0976 14.8134 28.979C14.7332 28.9023 14.6599 28.8256 14.5832 28.7454C14.5344 28.6966 14.4891 28.6478 14.4473 28.599C14.3496 28.4944 14.252 28.3863 14.1578 28.2782C14.1474 28.2677 14.1369 28.2538 14.1265 28.2398C14.0219 28.1213 13.9207 27.9957 13.8196 27.8702C13.7987 27.8458 13.7778 27.8179 13.7569 27.79C13.6697 27.6784 13.5825 27.5669 13.4988 27.4518C13.3942 27.3123 13.2931 27.1693 13.1955 27.0264C13.1083 26.8974 13.0246 26.7649 12.9409 26.6324C12.8468 26.4859 12.7596 26.3325 12.6725 26.1791C12.5888 26.0326 12.5086 25.8862 12.4319 25.7363C12.4144 25.7118 12.4005 25.684 12.39 25.6595C12.3273 25.534 12.2645 25.405 12.2017 25.276C12.0588 24.9691 11.9228 24.6553 11.8042 24.338C11.7415 24.1776 11.6857 24.0172 11.6299 23.8534C11.201 22.5876 10.9674 21.2313 10.9534 19.8226H20.4342C20.6259 19.8226 20.7828 19.6657 20.7828 19.4739C20.7828 19.2821 20.6259 19.1252 20.4342 19.1252H10.9465C10.9639 18.6545 10.9988 18.1872 11.065 17.7305H17.3692C17.561 17.7305 17.7179 17.5736 17.7179 17.3818C17.7179 17.19 17.561 17.0331 17.3692 17.0331H10.9848C11.0162 16.8762 11.0441 16.7228 11.0825 16.5694C11.0964 16.4961 11.1138 16.4159 11.1348 16.3427C11.194 16.1021 11.2638 15.8615 11.337 15.6244C11.3649 15.5163 11.3998 15.4152 11.4381 15.3106C11.5078 15.1014 11.5846 14.8992 11.6648 14.6934C11.7205 14.5435 11.7833 14.3936 11.8496 14.2506C12.0867 13.6997 12.3656 13.1697 12.6725 12.6641C12.7073 12.6048 12.7422 12.5455 12.784 12.4897C12.8607 12.3642 12.9409 12.2422 13.0211 12.1201C13.1153 11.9737 13.2164 11.8342 13.3245 11.6947C13.4152 11.5657 13.5128 11.4437 13.6069 11.3182C13.6592 11.2484 13.7185 11.1787 13.7743 11.1124C13.8475 11.0218 13.9242 10.9311 14.0009 10.8474C14.0637 10.7672 14.1404 10.6836 14.2136 10.6069C14.2834 10.5301 14.3601 10.4499 14.4333 10.3732C14.4996 10.2965 14.5798 10.2163 14.6565 10.1431C14.8064 9.98619 14.9633 9.83974 15.1202 9.70027C15.2806 9.55382 15.441 9.41435 15.6084 9.27837C15.6886 9.20863 15.7723 9.14238 15.8559 9.07961C15.9501 9.00639 16.0477 8.92968 16.1419 8.85994C16.2151 8.80066 16.2918 8.74487 16.3685 8.69257C16.4557 8.6298 16.5463 8.56704 16.6335 8.50776C17.0763 8.20441 17.5436 7.93244 18.0213 7.68837C18.1154 7.63955 18.2165 7.58724 18.3142 7.54191C18.3839 7.51053 18.4536 7.47915 18.5199 7.44777C18.6071 7.40593 18.6977 7.36757 18.7884 7.32573C18.8616 7.29086 18.9383 7.26297 19.0115 7.2281C19.0778 7.20021 19.144 7.1758 19.2068 7.15139C19.3114 7.10955 19.4125 7.07119 19.5171 7.03284C19.7194 6.95961 19.9286 6.88639 20.1378 6.82363C20.2424 6.78876 20.347 6.75738 20.4551 6.72948C20.6678 6.67021 20.8805 6.61442 21.0967 6.5656C21.2048 6.54119 21.3094 6.51678 21.4209 6.49586C21.5988 6.45751 21.7801 6.42612 21.9614 6.39474C22.0521 6.38079 22.1462 6.36685 22.2369 6.3529C22.8505 6.26922 23.4782 6.2204 24.1198 6.2204C24.2523 6.2204 24.3813 6.22389 24.5103 6.22738C24.6149 6.22738 24.716 6.23435 24.8206 6.23784C24.9078 6.24132 24.9984 6.24829 25.0821 6.25527C25.1588 6.25875 25.239 6.26572 25.3157 6.2727C25.4343 6.28316 25.5494 6.29362 25.6644 6.30757C25.7934 6.32152 25.919 6.33896 26.0445 6.35639C26.1386 6.37034 26.2328 6.38428 26.3269 6.39823C26.9825 6.50981 27.6275 6.66323 28.2517 6.86547C28.3667 6.90382 28.4783 6.93869 28.5899 6.98402C28.705 7.02237 28.82 7.06422 28.9351 7.10955C28.9665 7.1235 28.9979 7.13395 29.0292 7.1479C29.3361 7.26994 29.6325 7.39895 29.9253 7.53842C30.0439 7.59421 30.159 7.65349 30.2775 7.71626C30.3891 7.77205 30.4937 7.83132 30.6018 7.8906C30.7099 7.94987 30.8145 8.01263 30.9191 8.07191C31.0272 8.13119 31.1283 8.19744 31.2329 8.2602C31.3375 8.32645 31.4386 8.3927 31.5398 8.45895C31.6444 8.5252 31.742 8.59494 31.8431 8.66468C32.0035 8.77974 32.1604 8.8983 32.3138 9.01685H22.9238C22.732 9.01685 22.5751 9.17376 22.5751 9.36554C22.5751 9.55731 22.732 9.71422 22.9238 9.71422H32.8857C32.9415 9.76304 32.9973 9.81534 33.0496 9.86415C33.1332 9.94086 33.2623 10.0699 33.3425 10.1466C33.3913 10.1954 33.4436 10.2442 33.4924 10.2965C33.5273 10.3314 33.5691 10.3732 33.604 10.4116C33.8167 10.6347 34.0189 10.8719 34.2176 11.109H27.7391C27.7391 11.109 27.4113 11.3635 27.4113 11.5448C27.4113 11.7261 27.5578 11.8726 27.7391 11.8063H34.7093C35.7693 13.3231 36.5364 14.9968 36.9304 16.8134C36.9304 16.8134 42.4571 12.6257 41.9305 11.4751C38.7017 4.40376 31.3968 -0.411569 23.0214 0.0277731C13.0211 0.554286 4.94212 8.69606 4.48535 18.6998C3.97278 29.9484 12.9409 39.2303 24.0779 39.2303C26.1491 39.2303 28.1471 38.9095 30.023 38.3133L32.8473 41.1376C33.1263 41.4166 33.5447 40.8273 33.5447 40.8273V37.2184C37.4953 34.8857 40.6056 31.1444 42.2792 26.6359C42.3873 26.4127 42.2444 26.1616 42.0073 26.1163Z" fill="url(#paint0_linear_46_2)"/>
<path d="M36.9513 16.8204C36.7456 15.8755 36.4387 14.9689 36.0412 14.1111C37.959 12.8559 39.7129 11.489 41.2157 10.0385C41.4807 10.5092 41.7248 10.9904 41.9514 11.4821C42.4779 12.6327 36.9513 16.8204 36.9513 16.8204Z" fill="url(#paint1_linear_46_2)"/>
<path d="M11.8077 24.2822C11.9263 24.603 12.0623 24.9168 12.2052 25.2237C12.0588 24.9168 11.9263 24.603 11.8077 24.2822Z" fill="url(#paint2_linear_46_2)"/>
<path d="M15.5561 29.6102C15.8106 29.8298 16.0756 30.039 16.3476 30.2378C16.0756 30.0425 15.8106 29.8333 15.5561 29.6102Z" fill="url(#paint3_linear_46_2)"/>
<path d="M16.3476 30.2378C16.6161 30.433 16.8916 30.6213 17.174 30.7957C16.8916 30.6213 16.6161 30.4365 16.3476 30.2378Z" fill="url(#paint4_linear_46_2)"/>
<path d="M28.9247 7.38498C29.2245 7.50005 29.5174 7.62906 29.8033 7.76853C29.5174 7.63255 29.2245 7.50353 28.9247 7.38498Z" fill="url(#paint5_linear_46_2)"/>
<path d="M33.6214 10.5511C33.8481 10.7917 34.0712 11.0427 34.2804 11.3008C34.0712 11.0427 33.8516 10.7917 33.6214 10.5511Z" fill="url(#paint6_linear_46_2)"/>
<path d="M33.6842 28.6234C33.8794 28.4177 34.0642 28.205 34.2491 27.9853C34.0677 28.205 33.8829 28.4177 33.6842 28.6234Z" fill="url(#paint7_linear_46_2)"/>
<path d="M50.1281 2.76489L47.9733 13.2952L46.8331 10.9241C44.9048 13.2115 38.9633 19.4425 28.6283 23.2396C26.1038 24.1671 23.3108 24.9517 20.2529 25.4956C17.4948 25.9873 14.9598 26.1895 12.6899 26.1511C9.72609 26.1093 7.2051 25.663 5.21411 24.9203C-1.54339 22.4098 -2.2547 16.5344 6.18345 11.6563C5.7197 12.6884 5.34662 13.7694 5.06767 14.8887L5.05721 14.9165C5.05721 14.9165 0.475491 18.1558 3.61016 20.8058C3.8926 21.0464 4.21339 21.2591 4.57253 21.4509C6.19043 22.3087 8.52661 22.6504 11.2847 22.5527C18.4746 22.2982 28.5097 19.045 36.0413 14.1111C37.9591 12.8558 39.7129 11.489 41.2158 10.0385C41.948 9.33062 42.621 8.60536 43.2242 7.85918L40.3231 7.16181L50.1281 2.76489Z" fill="url(#paint8_linear_46_2)"/>
<path d="M18.642 17.7514C18.823 17.7514 18.9697 17.6047 18.9697 17.4237C18.9697 17.2426 18.823 17.0959 18.642 17.0959C18.461 17.0959 18.3142 17.2426 18.3142 17.4237C18.3142 17.6047 18.461 17.7514 18.642 17.7514Z" fill="url(#paint9_linear_46_2)"/>
<path d="M21.5744 9.87461C21.7554 9.87461 21.9021 9.72787 21.9021 9.54685C21.9021 9.36583 21.7554 9.21909 21.5744 9.21909C21.3934 9.21909 21.2466 9.36583 21.2466 9.54685C21.2466 9.72787 21.3934 9.87461 21.5744 9.87461Z" fill="url(#paint10_linear_46_2)"/>
<path d="M27.4323 30.9386C27.6133 30.9386 27.76 30.7919 27.76 30.6109C27.76 30.4299 27.6133 30.2831 27.4323 30.2831C27.2512 30.2831 27.1045 30.4299 27.1045 30.6109C27.1045 30.7919 27.2512 30.9386 27.4323 30.9386Z" fill="url(#paint11_linear_46_2)"/>
<path d="M26.1805 30.9386C26.3615 30.9386 26.5083 30.7919 26.5083 30.6109C26.5083 30.4299 26.3615 30.2831 26.1805 30.2831C25.9995 30.2831 25.8527 30.4299 25.8527 30.6109C25.8527 30.7919 25.9995 30.9386 26.1805 30.9386Z" fill="url(#paint12_linear_46_2)"/>
<path d="M17.4529 30.9631C15.3224 31.9917 12.1878 32.7867 10.005 33.2574C7.48752 30.6562 5.68482 27.3611 4.91074 23.686L11.8775 24.4601C11.9786 24.7181 12.0901 24.9727 12.2052 25.2237C12.268 25.3527 12.3307 25.4817 12.3935 25.6073C12.404 25.6317 12.4179 25.6596 12.4353 25.684C12.5121 25.8339 12.5922 25.9803 12.6759 26.1268C12.7631 26.2802 12.8503 26.4336 12.9444 26.5801C13.0281 26.7126 13.1118 26.8451 13.199 26.9741C13.2966 27.1171 13.3977 27.26 13.5023 27.3995C13.586 27.5146 13.6732 27.6261 13.7603 27.7377C13.7813 27.7656 13.8022 27.7935 13.8231 27.8179C13.9242 27.9434 14.0253 28.069 14.1299 28.1875C14.1404 28.2015 14.1509 28.2154 14.1613 28.2259C14.2555 28.334 14.3531 28.4421 14.4507 28.5467C14.4926 28.5955 14.5379 28.6443 14.5867 28.6931C14.6634 28.7733 14.7367 28.85 14.8169 28.9267C14.9354 29.0453 15.0575 29.1638 15.1795 29.2754C15.3015 29.3905 15.4271 29.5021 15.5561 29.6102C15.8106 29.8298 16.0756 30.039 16.3476 30.2378C16.6161 30.433 16.8915 30.6213 17.174 30.7957C17.2646 30.855 17.3588 30.9108 17.4529 30.9631Z" fill="url(#paint13_linear_46_2)"/>
<path d="M50.1281 2.76489L47.9733 13.2952L46.8331 10.9241C44.9048 13.2115 38.9633 19.4425 28.6283 23.2396C26.1038 24.1671 23.3108 24.9517 20.2529 25.4956C17.4948 25.9873 14.9598 26.1895 12.6899 26.1511C9.72609 26.1093 7.2051 25.663 5.21411 24.9203C-1.54339 22.4098 -2.2547 16.5344 6.18345 11.6563C5.7197 12.6884 5.34662 13.7694 5.06767 14.8887L5.05721 14.9165C5.05721 14.9165 0.475491 18.1558 3.61016 20.8058C3.8926 21.0464 4.21339 21.2591 4.57253 21.4509C6.19043 22.3087 8.52661 22.6504 11.2847 22.5527C18.4746 22.2982 28.5097 19.045 36.0413 14.1111C37.9591 12.8558 39.7129 11.489 41.2158 10.0385C41.948 9.33062 42.621 8.60536 43.2242 7.85918L40.3231 7.16181L50.1281 2.76489Z" fill="url(#paint14_linear_46_2)"/>
<path d="M46.833 10.9241C44.9048 13.2115 38.9632 19.4425 28.6282 23.2397L27.101 22.2459C38.6564 19.1915 46.0973 9.01685 46.0973 9.01685L46.833 10.9241Z" fill="url(#paint15_linear_46_2)"/>
<path d="M5.59068 13.1383C5.39193 13.7101 5.21759 14.2925 5.06766 14.8887L5.0572 14.9166C5.0572 14.9166 1.04035 17.7549 3.10107 20.2933C0.545219 17.2179 5.59068 13.1383 5.59068 13.1383Z" fill="url(#paint16_linear_46_2)"/>
<path d="M42.2897 26.8416C40.6126 31.0746 37.5058 34.5789 33.5691 36.7686V40.8308C33.5691 41.2213 33.0949 41.4166 32.816 41.1411L29.9951 38.3168C28.1192 38.913 26.1212 39.2338 24.0501 39.2338C18.2828 39.2338 13.0979 36.7442 9.50992 32.7832C13.9835 35.8865 20.4516 36.9151 24.1825 36.263C32.5684 34.8021 35.5601 26.4267 35.9472 25.3318C36.0134 25.2865 36.1006 25.2655 36.2366 25.276L41.9933 26.3151C42.2339 26.3569 42.3804 26.6149 42.2897 26.8416Z" fill="url(#paint17_linear_46_2)"/>
<path d="M13.56 28.27C13.56 27.43 13.71 26.94 14.01 26.8C14.47 26.52 14.79 26.38 14.97 26.38C15.09 26.38 15.25 26.4 15.45 26.44C15.21 24.44 15.09 22.43 15.09 20.41C15.09 18.47 15.21 16.54 15.45 14.62C15.21 14.66 15.02 14.68 14.88 14.68C14.58 14.68 14.29 14.54 14.01 14.26C13.85 14.02 13.77 13.45 13.77 12.55C13.77 11.67 13.85 11.11 14.01 10.87C13.99 10.65 14.41 10.46 15.27 10.3C16.15 10.14 17.11 10.06 18.15 10.06C19.09 10.06 19.74 10.15 20.1 10.33C20.68 10.63 20.97 11.33 20.97 12.43C20.97 13.11 20.88 13.7 20.7 14.2C20.32 14.46 19.96 14.59 19.62 14.59C19.46 14.59 19.27 14.56 19.05 14.5C19.93 15.16 21.32 16.3 23.22 17.92C25.12 19.52 26.51 20.78 27.39 21.7C27.39 18.74 27.51 16.38 27.75 14.62C27.63 14.64 27.45 14.65 27.21 14.65C26.89 14.65 26.59 14.52 26.31 14.26C26.01 13.74 25.86 13.08 25.86 12.28C25.86 11.56 26.01 11.09 26.31 10.87C27.05 10.31 28.26 10.03 29.94 10.03C31.14 10.03 31.96 10.13 32.4 10.33C33.06 10.71 33.39 11.5 33.39 12.7C33.39 13.36 33.26 13.86 33 14.2C32.48 14.44 32.1 14.56 31.86 14.56C31.72 14.56 31.55 14.54 31.35 14.5C31.59 16.12 31.71 17.88 31.71 19.78C31.71 21.34 31.59 23.6 31.35 26.56C31.59 26.5 31.75 26.47 31.83 26.47C32.35 26.47 32.74 26.6 33 26.86C33.22 27.14 33.33 27.55 33.33 28.09C33.33 28.59 33.24 29.11 33.06 29.65C32.88 30.17 32.66 30.53 32.4 30.73C32 30.91 31.02 31 29.46 31C27.82 31 26.77 30.74 26.31 30.22C26.01 29.92 25.86 29.28 25.86 28.3C25.86 27.5 26.01 27 26.31 26.8C26.71 26.52 27 26.38 27.18 26.38C27.3 26.38 27.46 26.4 27.66 26.44C26.86 25.92 25.44 24.71 23.4 22.81C21.36 20.89 20.02 19.68 19.38 19.18C19.34 22.02 19.23 24.48 19.05 26.56C19.29 26.52 19.5 26.5 19.68 26.5C20.08 26.5 20.42 26.62 20.7 26.86C20.88 27.06 20.97 27.44 20.97 28C20.97 28.56 20.88 29.13 20.7 29.71C20.54 30.27 20.34 30.61 20.1 30.73C19.74 30.91 19.09 31 18.15 31C17.11 31 16.15 30.92 15.27 30.76C14.41 30.6 13.99 30.41 14.01 30.19C13.71 29.89 13.56 29.25 13.56 28.27ZM36.1723 27.73C36.1723 27.31 36.2123 27.06 36.2923 26.98C36.8523 26.9 37.3023 26.86 37.6423 26.86C37.7023 26.86 37.8023 26.87 37.9423 26.89C38.1023 26.89 38.2223 26.89 38.3023 26.89C38.1623 25.09 38.0923 23.52 38.0923 22.18C38.0923 20.38 38.2223 17.68 38.4823 14.08C37.8223 14.26 37.3723 14.35 37.1323 14.35C36.9523 14.35 36.8323 14.33 36.7723 14.29C36.4523 14.05 36.2923 13.49 36.2923 12.61C36.2923 11.67 36.4223 11 36.6823 10.6C37.9623 10 40.1523 9.7 43.2523 9.7C45.1923 9.7 47.2123 9.81 49.3123 10.03C51.4123 10.25 52.8723 10.5 53.6923 10.78C53.8923 11.78 53.9923 12.55 53.9923 13.09C53.9923 14.03 53.7623 14.8 53.3023 15.4C52.9023 15.5 52.4823 15.55 52.0423 15.55C50.9023 15.55 50.1723 15.23 49.8523 14.59L49.9423 13.6C49.5423 13.34 48.5023 13.21 46.8223 13.21C46.2423 13.21 45.5223 13.24 44.6623 13.3C43.8223 13.36 43.3923 13.42 43.3723 13.48C43.0923 14.46 42.8323 15.99 42.5923 18.07C44.3123 18.07 45.1823 18.04 45.2023 17.98C45.2023 17.48 45.3023 17.13 45.5023 16.93C46.1423 16.79 46.5023 16.72 46.5823 16.72C47.1623 16.72 47.6923 16.82 48.1723 17.02C48.5323 17.44 48.7123 18.2 48.7123 19.3C48.7123 19.92 48.6523 20.52 48.5323 21.1C48.4323 21.66 48.3023 22.02 48.1423 22.18C47.9623 22.32 47.3923 22.39 46.4323 22.39C45.8923 22.39 45.5623 22.33 45.4423 22.21C45.4023 22.17 45.3523 22.12 45.2923 22.06C45.2523 21.98 45.2223 21.93 45.2023 21.91C45.1823 21.87 45.1623 21.83 45.1423 21.79C45.1223 21.73 45.1023 21.67 45.0823 21.61C45.0823 21.55 45.0823 21.47 45.0823 21.37H42.3823C42.3823 23.15 42.4323 25.04 42.5323 27.04C42.7123 26.98 43.0023 26.95 43.4023 26.95C43.9223 26.95 44.2123 26.99 44.2723 27.07C44.4723 27.33 44.5723 28.05 44.5723 29.23C44.5723 30.19 44.5523 30.67 44.5123 30.67C43.8723 31.17 42.6323 31.42 40.7923 31.42C38.7523 31.42 37.3423 31.22 36.5623 30.82C36.3023 30.48 36.1723 29.45 36.1723 27.73ZM54.4003 13.69C54.4003 12.31 54.5403 11.2 54.8203 10.36C55.2003 10.34 56.0103 10.3 57.2503 10.24C58.4903 10.16 59.7303 10.1 60.9703 10.06C62.2303 10.02 63.5103 10 64.8103 10C66.1103 10 67.4003 10.02 68.6803 10.06C69.9603 10.1 71.2503 10.16 72.5503 10.24C73.8703 10.3 74.7103 10.34 75.0703 10.36C75.3503 11.2 75.4903 12.31 75.4903 13.69C75.4903 14.41 75.4203 15.04 75.2803 15.58C74.2803 15.78 73.5703 15.88 73.1503 15.88C72.2703 15.88 71.5303 15.71 70.9303 15.37L70.4203 13.81C70.1603 13.65 69.0303 13.54 67.0303 13.48C67.1503 16.04 67.2103 18.7 67.2103 21.46C67.2103 23.62 67.1003 25.28 66.8803 26.44C66.9803 26.44 67.2103 26.47 67.5703 26.53C68.0903 26.61 68.4403 26.7 68.6203 26.8C68.7403 26.96 68.8003 27.57 68.8003 28.63C68.8003 29.41 68.7303 29.92 68.5903 30.16C68.2703 30.72 67.0603 31 64.9603 31C62.8403 31 61.6203 30.72 61.3003 30.16C61.1603 29.92 61.0903 29.4 61.0903 28.6C61.0903 27.56 61.1503 26.96 61.2703 26.8C61.4503 26.7 61.8003 26.61 62.3203 26.53C62.6803 26.47 62.9103 26.44 63.0103 26.44C62.7903 25.28 62.6803 23.62 62.6803 21.46C62.6803 18.7 62.7403 16.04 62.8603 13.48C60.8603 13.54 59.7303 13.65 59.4703 13.81L58.9603 15.37C58.3603 15.71 57.6203 15.88 56.7403 15.88C56.3203 15.88 55.6103 15.78 54.6103 15.58C54.4703 15.04 54.4003 14.41 54.4003 13.69Z" fill="#CC00FF"/>
<defs>
<linearGradient id="paint0_linear_46_2" x1="8.80694" y1="36.4107" x2="46.1982" y2="-0.98056" gradientUnits="userSpaceOnUse">
<stop stop-color="#4AFFC7"/>
<stop offset="1" stop-color="#2E3DFF"/>
</linearGradient>
<linearGradient id="paint1_linear_46_2" x1="35.7409" y1="16.4745" x2="43.1864" y2="9.02906" gradientUnits="userSpaceOnUse">
<stop stop-color="#4AFFC7"/>
<stop offset="1" stop-color="#2E3DFF"/>
</linearGradient>
<linearGradient id="paint2_linear_46_2" x1="11.8086" y1="24.7524" x2="12.2061" y2="24.7524" gradientUnits="userSpaceOnUse">
<stop stop-color="#4AFFC7"/>
<stop offset="1" stop-color="#2E3DFF"/>
</linearGradient>
<linearGradient id="paint3_linear_46_2" x1="15.5569" y1="29.9234" x2="16.3484" y2="29.9234" gradientUnits="userSpaceOnUse">
<stop stop-color="#4AFFC7"/>
<stop offset="1" stop-color="#2E3DFF"/>
</linearGradient>
<linearGradient id="paint4_linear_46_2" x1="16.3485" y1="30.5162" x2="17.1749" y2="30.5162" gradientUnits="userSpaceOnUse">
<stop stop-color="#4AFFC7"/>
<stop offset="1" stop-color="#2E3DFF"/>
</linearGradient>
<linearGradient id="paint5_linear_46_2" x1="28.9255" y1="7.5762" x2="29.8042" y2="7.5762" gradientUnits="userSpaceOnUse">
<stop stop-color="#4AFFC7"/>
<stop offset="1" stop-color="#2E3DFF"/>
</linearGradient>
<linearGradient id="paint6_linear_46_2" x1="33.6223" y1="10.9254" x2="34.2813" y2="10.9254" gradientUnits="userSpaceOnUse">
<stop stop-color="#4AFFC7"/>
<stop offset="1" stop-color="#2E3DFF"/>
</linearGradient>
<linearGradient id="paint7_linear_46_2" x1="33.685" y1="28.3038" x2="34.2499" y2="28.3038" gradientUnits="userSpaceOnUse">
<stop stop-color="#4AFFC7"/>
<stop offset="1" stop-color="#2E3DFF"/>
</linearGradient>
<linearGradient id="paint8_linear_46_2" x1="0.000864279" y1="14.4598" x2="50.129" y2="14.4598" gradientUnits="userSpaceOnUse">
<stop stop-color="#4AFFC7"/>
<stop offset="1" stop-color="#2E3DFF"/>
</linearGradient>
<linearGradient id="paint9_linear_46_2" x1="17.422" y1="18.6435" x2="21.4658" y2="14.5996" gradientUnits="userSpaceOnUse">
<stop stop-color="#4AFFC7"/>
<stop offset="1" stop-color="#2E3DFF"/>
</linearGradient>
<linearGradient id="paint10_linear_46_2" x1="20.3527" y1="10.768" x2="24.3966" y2="6.72417" gradientUnits="userSpaceOnUse">
<stop stop-color="#4AFFC7"/>
<stop offset="1" stop-color="#2E3DFF"/>
</linearGradient>
<linearGradient id="paint11_linear_46_2" x1="26.2104" y1="31.833" x2="30.2541" y2="27.7892" gradientUnits="userSpaceOnUse">
<stop stop-color="#4AFFC7"/>
<stop offset="1" stop-color="#2E3DFF"/>
</linearGradient>
<linearGradient id="paint12_linear_46_2" x1="24.9609" y1="31.8331" x2="29.0047" y2="27.7892" gradientUnits="userSpaceOnUse">
<stop stop-color="#4AFFC7"/>
<stop offset="1" stop-color="#2E3DFF"/>
</linearGradient>
<linearGradient id="paint13_linear_46_2" x1="11.6804" y1="31.6278" x2="10.9395" y2="25.2208" gradientUnits="userSpaceOnUse">
<stop stop-color="#4AFFC7" stop-opacity="0"/>
<stop offset="1" stop-color="#2E3DFF"/>
</linearGradient>
<linearGradient id="paint14_linear_46_2" x1="52.9007" y1="3.70578" x2="2.25448" y2="23.3192" gradientUnits="userSpaceOnUse">
<stop stop-color="#FFFF2A"/>
<stop offset="1" stop-color="#00E2D6"/>
</linearGradient>
<linearGradient id="paint15_linear_46_2" x1="30.4928" y1="22.3567" x2="43.7428" y2="11.1988" gradientUnits="userSpaceOnUse">
<stop stop-color="#4AFFC7" stop-opacity="0"/>
<stop offset="1" stop-color="#00BF27"/>
</linearGradient>
<linearGradient id="paint16_linear_46_2" x1="2.37933" y1="16.7153" x2="5.59156" y2="16.7153" gradientUnits="userSpaceOnUse">
<stop stop-color="#4AFFC7"/>
<stop offset="1" stop-color="#2E3DFF"/>
</linearGradient>
<linearGradient id="paint17_linear_46_2" x1="47.0288" y1="28.619" x2="17.4778" y2="38.295" gradientUnits="userSpaceOnUse">
<stop stop-color="#4AFFC7"/>
<stop offset="1" stop-color="#2E3DFF"/>
</linearGradient>
</defs>
</svg>
