<svg width="50" height="50" viewBox="0 0 50 50" fill="none" xmlns="http://www.w3.org/2000/svg">
<path fill-rule="evenodd" clip-rule="evenodd" d="M45.0972 39.872C48.1781 35.7161 50 30.5708 50 25C50 11.1928 38.807 0 25 0C11.1928 0 0 11.1928 0 25C0 38.807 11.1928 50 25 50C32.2439 50 38.7682 46.9191 43.3344 41.996C43.9596 41.3214 44.5484 40.6125 45.0972 39.872ZM43.7111 37.5C46.1042 33.9247 47.4998 29.6253 47.4998 25C47.4998 12.5736 37.4264 2.49995 24.9997 2.49995C12.5736 2.49995 2.49995 12.5736 2.49995 25C2.49995 29.6255 3.89555 33.9247 6.28891 37.5C9.30832 32.9892 13.9157 29.6311 19.3113 28.2254C16.7061 26.4201 14.9999 23.4094 14.9999 19.9998C14.9999 14.4771 19.4772 9.99979 25 9.99979C30.5228 9.99979 35.0001 14.4771 35.0001 19.9998C35.0001 23.4092 33.2937 26.4201 30.6887 28.2252C36.0841 29.6311 40.6917 32.989 43.7111 37.5ZM42.1007 39.623C38.5922 33.8535 32.2463 29.9999 25.0003 29.9999C17.754 29.9999 11.4078 33.8535 7.89926 39.6232C12.0259 44.4445 18.156 47.5001 25 47.5001C31.844 47.5001 37.9741 44.4442 42.1007 39.623ZM25 27.4999C29.1422 27.4999 32.5001 24.1423 32.5001 19.9998C32.5001 15.8576 29.1425 12.4997 25 12.4997C20.8575 12.4997 17.4999 15.8579 17.4999 20.0001C17.4999 24.1423 20.8578 27.4999 25 27.4999Z" fill="#D60AFF"/>
</svg>
